<svg xmlns="http://www.w3.org/2000/svg" width="24" height="24" fill="none" viewBox="0 0 24 24"><path fill="#000" fill-rule="evenodd" d="M17.4803 6.51972C17.6925 6.73186 17.7578 7.05003 17.6463 7.32859L14.8179 14.3997C14.7243 14.6337 14.5193 14.8051 14.2724 14.8558C14.0254 14.9065 13.7695 14.8297 13.5912 14.6514L9.34859 10.4088C9.17032 10.2305 9.09355 9.97463 9.14424 9.72768C9.19493 9.48072 9.3663 9.27575 9.60038 9.18212L16.6714 6.35369C16.95 6.24227 17.2682 6.30757 17.4803 6.51972ZM11.2135 10.1524L13.8476 12.7865L15.6037 8.39634L11.2135 10.1524Z" clip-rule="evenodd"/><path fill="#000" fill-rule="evenodd" d="M9.72745 9.1438C9.97441 9.09311 10.2303 9.16988 10.4086 9.34815L14.6512 13.5908C14.8295 13.7691 14.9063 14.025 14.8556 14.2719C14.8049 14.5189 14.6335 14.7238 14.3994 14.8175L7.32837 17.6459C7.04981 17.7573 6.73164 17.692 6.5195 17.4799C6.30735 17.2677 6.24204 16.9496 6.35347 16.671L9.1819 9.59994C9.27553 9.36586 9.4805 9.19449 9.72745 9.1438ZM10.1522 11.2131L8.39612 15.6033L12.7863 13.8472L10.1522 11.2131Z" clip-rule="evenodd"/><path fill="#000" fill-rule="evenodd" d="M11.999 2.74991C6.89039 2.74991 2.74902 6.89127 2.74902 11.9999C2.74902 17.1085 6.89039 21.2499 11.999 21.2499C14.0827 21.2499 16.0034 20.5619 17.5495 19.4003C17.8807 19.1515 18.3508 19.2182 18.5996 19.5494C18.8484 19.8806 18.7817 20.3507 18.4505 20.5995C16.6536 21.9496 14.4187 22.7499 11.999 22.7499C6.06196 22.7499 1.24902 17.937 1.24902 11.9999C1.24902 6.06285 6.06196 1.24991 11.999 1.24991C17.9361 1.24991 22.749 6.06285 22.749 11.9999C22.749 13.5274 22.43 14.9824 21.8542 16.3002C21.6884 16.6798 21.2462 16.853 20.8667 16.6872C20.4871 16.5213 20.3138 16.0792 20.4797 15.6996C20.9743 14.5676 21.249 13.3168 21.249 11.9999C21.249 6.89127 17.1077 2.74991 11.999 2.74991Z" clip-rule="evenodd"/></svg>