<svg xmlns="http://www.w3.org/2000/svg" width="48" height="48"><path d="M36.88 22.3a14 14 0 0 0-3.31-4.61l-1.17-1.06a.32.32 0 0 0-.52.13l-.52 1.49a8.44 8.44 0 0 1-1.76 2.83.24.24 0 0 1-.16.08.2.2 0 0 1-.18-.06.27.27 0 0 1-.08-.19A15.48 15.48 0 0 0 27 12.83a14.33 14.33 0 0 0-5.38-5.71L20 6.15a.32.32 0 0 0-.48.29l.09 1.92a8.77 8.77 0 0 1-.45 3.44 11.55 11.55 0 0 1-3.78 5.1 14.16 14.16 0 0 0-4 4.86 13.91 13.91 0 0 0-1.45 6.17A13.68 13.68 0 0 0 11 33.37a14.18 14.18 0 0 0 18.48 7.43A14.11 14.11 0 0 0 37 33.38a13.87 13.87 0 0 0-.09-11.08ZM32 35.87a11.44 11.44 0 0 1-16.08 0A11.15 11.15 0 0 1 13.8 23a11.46 11.46 0 0 1 3.2-3.94 13.94 13.94 0 0 0 2.34-2.27 14.32 14.32 0 0 0 2.33-4 9.74 9.74 0 0 0 .48-1.86 12.08 12.08 0 0 1 2.45 3.22 12.73 12.73 0 0 1 1.83 6.62 3 3 0 0 0 3.11 3.15 2.9 2.9 0 0 0 2-1A12 12 0 0 0 33 21.08a10.76 10.76 0 0 1 1.4 2.33A11.14 11.14 0 0 1 32 35.87Z"/><path d="M26.56 32.91a2.8 2.8 0 0 0-.66-.91l-.23-.21a.06.06 0 0 0-.1 0l-.11.3a1.49 1.49 0 0 1-.35.56A3 3 0 0 0 24.6 31a2.78 2.78 0 0 0-1.07-1.13l-.32-.2a.07.07 0 0 0-.1.06v.38a1.86 1.86 0 0 1-.09.69 2.31 2.31 0 0 1-.38.64 2.16 2.16 0 0 1-.37.37 2.68 2.68 0 0 0-.8 1 2.76 2.76 0 0 0-.07 2.31 2.81 2.81 0 0 0 .6.88 2.94 2.94 0 0 0 .89.59 2.81 2.81 0 0 0 2.18 0A2.77 2.77 0 0 0 26 36a2.81 2.81 0 0 0 .6-.88 2.71 2.71 0 0 0 .2-1.12 2.76 2.76 0 0 0-.24-1.13Z"/></svg>